<svg width="100" height="100" viewBox="0 0 100 100" fill="none" xmlns="http://www.w3.org/2000/svg">
<path d="M92.56 20.78C96.58 15.4 98.99 9.81 99 5.82C98.99 4.53 98.74 3.52 98.24 2.76C98.19 2.67 98.05 2.43 97.8 2.19C97.55 1.94 97.33 1.81 97.28 1.78C96.49 1.25 95.47 1 94.18 1C90.2 1.01 84.6 3.41 79.22 7.44C74.87 10.7 70.51 15.29 64.49 21.64C63.47 22.72 62.39 23.85 61.25 25.04L49.58 21.54L49.62 21.51C50.11 21.02 50.38 20.35 50.37 19.68C50.38 18.98 50.09 18.31 49.61 17.82L47.5 15.71C47.01 15.22 46.34 14.94 45.64 14.94C44.94 14.94 44.28 15.21 43.79 15.71L40.64 18.87L38.97 18.37C39.33 17.91 39.53 17.34 39.52 16.78C39.53 16.07 39.25 15.41 38.76 14.92L36.64 12.8C36.16 12.31 35.49 12.04 34.78 12.04C34.08 12.04 33.43 12.31 32.94 12.81L30.05 15.7L18.18 12.14C17.91 12.06 17.63 12.02 17.33 12.02C16.49 12.03 15.71 12.34 15.13 12.91L10.96 17.08C10.49 17.55 10.22 18.19 10.23 18.8C10.21 19.7 10.71 20.52 11.5 20.95L36.46 34.89C36.58 34.96 36.94 35.22 37.07 35.35L44.19 42.46C37.53 49.47 31.6 56.26 26.98 62.17C26.55 62.72 26.14 63.25 25.74 63.78L6.42003 62.04C6.33003 62.03 6.22003 62.02 6.09003 62.02C5.20003 62.04 4.34003 62.39 3.70003 63.01L1.75003 64.95C1.27003 65.42 1.00003 66.06 1.01003 66.67C1.00003 67.61 1.56003 68.47 2.41003 68.85L16 75.3C16.12 75.36 16.42 75.57 16.52 75.67L17.65 76.79C17.3 77.78 17.12 78.65 17.11 79.4C17.11 80.41 17.43 81.28 18.06 81.9L18.11 81.94L18.12 81.95C18.76 82.57 19.59 82.89 20.62 82.89C21.36 82.88 22.21 82.7 23.21 82.35L24.35 83.49C24.44 83.58 24.65 83.88 24.71 84L31.15 97.56C31.54 98.43 32.39 98.99 33.32 98.99H33.33C33.97 98.99 34.58 98.73 35.05 98.27L37.04 96.27C37.63 95.65 37.98 94.79 37.99 93.88C37.99 93.77 37.99 93.68 37.98 93.64L36.22 74.26C36.75 73.86 37.28 73.45 37.83 73.02C43.75 68.39 50.54 62.46 57.54 55.81L64.66 62.94C64.78 63.05 65.04 63.4 65.12 63.55L79.04 88.47C79.47 89.27 80.28 89.77 81.19 89.77C81.84 89.77 82.45 89.51 82.93 89.04L87.13 84.84C87.68 84.27 87.98 83.49 87.99 82.65C87.99 82.37 87.95 82.09 87.88 81.83L84.32 69.96L87.21 67.06C87.7 66.58 87.97 65.9 87.97 65.21C87.97 64.52 87.7 63.86 87.21 63.37L85.09 61.25C84.6 60.76 83.93 60.49 83.24 60.49C82.65 60.49 82.08 60.69 81.64 61.04L81.14 59.38L84.3 56.22C84.79 55.73 85.06 55.06 85.06 54.37C85.06 53.67 84.79 53.02 84.3 52.53L82.19 50.42C81.7 49.93 81.03 49.65 80.33 49.65C79.63 49.65 78.96 49.93 78.48 50.42L78.46 50.44L74.96 38.77C76.17 37.62 77.31 36.52 78.41 35.49C84.74 29.47 89.31 25.13 92.56 20.78Z" fill="#727E80"/>
</svg>
