<svg width="256" height="256" viewBox="0 0 256 256" fill="none" xmlns="http://www.w3.org/2000/svg">
<g clip-path="url(#clip0_305_10)">
<path d="M54.2411 46.0509C53.7651 46.0439 53.2812 46.0559 52.8031 46.0676C48.9776 46.1646 45.0993 46.8442 41.4701 47.6768C38.0709 48.4567 34.4195 49.758 32.1058 52.3676C28.4802 56.4568 26.5934 67.7925 26.5934 67.7925C26.5934 67.7925 15.9744 74.8919 12.2644 79.9305C8.77475 84.67 6.94275 90.5065 5.36525 96.1765C4.32075 99.9308 4.07425 103.868 3.72175 107.75C1.39395 133.38 -1.29345 156.708 0.691652 184.907C1.40007 194.971 5.78505 199.906 11.7167 204.474C17.2059 208.701 24.9727 210.689 31.8317 209.712C37.2158 208.946 42.0097 205.223 45.8357 201.358C53.8141 193.299 61.3187 173.342 62.9727 171.964C64.626 170.586 66.8246 167.273 66.8246 167.273C66.8246 167.273 72.1174 172.057 75.3672 173.333C79.9376 175.129 85.1037 175.924 89.9702 175.268C96.2932 174.416 102.756 171.969 107.603 167.821C111.05 164.871 114.776 156.248 114.776 156.248H141.225C141.225 156.248 144.951 164.871 148.398 167.821C153.246 171.969 159.708 174.416 166.031 175.268C170.897 175.924 176.063 175.129 180.634 173.333C183.884 172.057 189.177 167.273 189.177 167.273C189.177 167.273 191.375 170.586 193.029 171.964C194.682 173.342 202.17 193.299 210.148 201.358C213.974 205.223 218.784 208.946 224.169 209.712C231.028 210.689 238.795 208.701 244.284 204.474C250.215 199.905 254.6 194.97 255.309 184.907C257.294 156.708 254.606 133.38 252.278 107.75C251.926 103.869 251.662 99.9311 250.618 96.1765C249.04 90.5063 247.225 84.6695 243.736 79.9305C240.026 74.8923 229.407 67.7925 229.407 67.7925C229.407 67.7925 227.503 56.4576 223.877 52.3676C221.564 49.758 217.929 48.4566 214.53 47.6768C207.272 46.0116 199.005 44.9683 192.189 47.9678C188.269 49.693 185.594 54.0256 183.39 57.3322C181.185 60.6388 180.086 71.1132 180.086 71.1132L141.773 70.959V70.8392L128.009 70.8907L114.228 70.8392V70.959L75.9146 71.1132C75.9146 71.1132 74.8151 60.6382 72.6107 57.3322C70.4063 54.0256 67.7317 49.693 63.8113 47.9678C60.8292 46.6555 57.573 46.1016 54.2411 46.0509ZM209.741 73.5619C214.922 73.5619 219.122 77.7628 219.122 82.9434C219.122 88.1241 214.922 92.3247 209.741 92.3247C204.56 92.3247 200.36 88.124 200.36 82.9434C200.36 77.7627 204.56 73.5619 209.741 73.5619ZM38.4311 78.869H53.5301V90.0989C53.5301 90.0989 48.0578 97.3073 45.9805 97.2206C43.7751 97.1286 38.4309 90.0989 38.4309 90.0989L38.4311 78.869ZM186.981 93.4889C192.162 93.4889 196.362 97.6897 196.362 102.87C196.362 108.051 192.162 112.252 186.981 112.252C181.8 112.252 177.6 108.051 177.6 102.87C177.6 97.6896 181.8 93.4889 186.981 93.4889ZM232.519 93.4889C237.7 93.4889 241.9 97.6897 241.9 102.87C241.9 108.051 237.7 112.252 232.519 112.252C227.338 112.252 223.138 108.051 223.138 102.87C223.138 97.6896 227.338 93.4889 232.519 93.4889ZM23.6591 94.1737H34.8891C34.8891 94.1737 41.9187 99.5351 42.0108 101.741C42.0976 103.818 34.8891 109.29 34.8891 109.29H23.6591V94.1737ZM57.0761 94.1737H68.3061V109.29H57.0761C57.0761 109.29 49.8677 103.817 49.9544 101.74C50.0464 99.5347 57.0761 94.1737 57.0761 94.1737ZM145.781 98.1967L160.468 103.007L145.781 107.835V98.1967ZM94.4361 98.5355H109.069V107.496H94.4361V98.5355ZM45.9831 106.26C48.0604 106.173 53.5327 113.382 53.5327 113.382V124.612H38.4337V113.382C38.4337 113.382 43.7777 106.352 45.9831 106.26ZM209.743 113.433C214.924 113.433 219.124 117.634 219.124 122.814C219.124 127.995 214.924 132.196 209.743 132.196C204.562 132.196 200.362 127.995 200.362 122.814C200.362 117.634 204.562 113.433 209.743 113.433ZM86.0831 129.833C96.2031 129.833 104.401 138.031 104.401 148.151C104.401 158.271 96.2035 166.486 86.0831 166.486C75.9627 166.486 67.7651 158.271 67.7651 148.151C67.7651 138.031 75.9628 129.833 86.0831 129.833ZM168.804 129.833C178.924 129.833 187.122 138.031 187.122 148.151C187.122 158.271 178.924 166.486 168.804 166.486C158.684 166.486 150.486 158.271 150.486 148.151C150.486 138.031 158.684 129.833 168.804 129.833Z" fill="#727E80"/>
</g>
<defs>
<clipPath id="clip0_305_10">
<rect width="256" height="256" fill="white"/>
</clipPath>
</defs>
</svg>
