<svg width="980" height="604" viewBox="0 0 980 604" fill="none" xmlns="http://www.w3.org/2000/svg">
<path d="M226.2 603.199C215.9 603.199 207 599.499 199.6 592.099C192.2 584.699 188.5 575.799 188.5 565.499V490.099C188.5 500.399 184.8 509.299 177.4 516.699C170 524.099 161.1 527.799 150.8 527.799H113.1C102.8 527.799 93.9 524.099 86.5 516.699C79.1 509.299 75.4 500.399 75.4 490.099V376.999H0V226.199H75.4V113.099C75.4 102.799 79.1 93.8993 86.5 86.4993C93.9 79.0993 102.8 75.3992 113.1 75.3992H150.8C161.1 75.3992 170 79.0993 177.4 86.4993C184.8 93.8993 188.5 102.799 188.5 113.099V37.6992C188.5 32.6992 189.5 27.7992 191.5 23.1992C193.5 18.5992 196.2 14.4992 199.6 11.0992C203 7.69924 207 4.99927 211.7 2.99927C216.3 0.999268 221.2 -0.000732422 226.2 -0.000732422H263.9C274.2 -0.000732422 283.1 3.69924 290.5 11.0992C297.9 18.4992 301.6 27.3992 301.6 37.6992V226.199H678.5V37.6992C678.5 27.3992 682.2 18.4992 689.6 11.0992C697 3.69924 705.9 -0.000732422 716.2 -0.000732422H753.9C764.2 -0.000732422 773.1 3.69924 780.5 11.0992C787.9 18.4992 791.6 27.3992 791.6 37.6992V113.099C791.6 102.799 795.3 93.8993 802.7 86.4993C810.1 79.0993 819 75.3992 829.3 75.3992H867C877.3 75.3992 886.2 79.0993 893.6 86.4993C901 93.8993 904.7 102.799 904.7 113.099V226.199H980V376.999H904.6V490.099C904.6 500.399 900.9 509.299 893.5 516.699C886.1 524.099 877.2 527.799 866.9 527.799H829.2C822.4 527.799 816.1 526.099 810.4 522.699C804.6 519.299 800 514.699 796.6 508.899C793.2 503.099 791.5 496.799 791.5 490.099V565.499C791.5 575.799 787.8 584.699 780.4 592.099C773 599.499 764.1 603.199 753.8 603.199H716.1C705.8 603.199 696.9 599.499 689.5 592.099C682.1 584.699 678.4 575.799 678.4 565.499V376.999H301.5V565.499C301.5 572.299 299.8 578.599 296.4 584.299C293 590.099 288.4 594.699 282.6 598.099C276.8 601.499 270.5 603.199 263.8 603.199H226.2Z" fill="#727E80"/>
</svg>
