<?xml version="1.0" encoding="utf-8"?>
<!-- Svg Vector Icons : http://www.onlinewebfonts.com/icon -->
<!DOCTYPE svg PUBLIC "-//W3C//DTD SVG 1.1//EN" "http://www.w3.org/Graphics/SVG/1.1/DTD/svg11.dtd">
<svg version="1.1" xmlns="http://www.w3.org/2000/svg" xmlns:xlink="http://www.w3.org/1999/xlink" x="0px" y="0px" viewBox="0 0 1000 1000" enable-background="new 0 0 1000 1000" xml:space="preserve">
<metadata> Svg Vector Icons : http://www.onlinewebfonts.com/icon </metadata>
<g><path d="M500,10C229.4,10,10,229.4,10,500c0,270.6,219.4,490,490,490c270.6,0,490-219.4,490-490C990,229.4,770.6,10,500,10z M768.4,260.4L500,573.6L240.6,260.3L768.4,260.4z M201.4,316.6l175,204.8L201.4,695V320.4C201.4,319.2,201.4,317.9,201.4,316.6z M245.1,739.4L415.4,567l84.6,98.6l84.6-98.6L755,739.4H245.1z M798.2,695.1L623.5,521.5l174.7-204.8L798.2,695.1z"/></g>
</svg>